# xmcd
#
# Track frame offsets:
#	150
#	13875
#	29587
#	54112
#	74250
#	87037
#	99712
#	113325
#	123037
#	135524
#	147038
#	169388
#	184313
#	203213
#	217838
#	232613
#	245063
#	259350
#
# Disc length: 3625 seconds
# Revision: 0
# Processed by: cddbd v1.5.2PL0 Copyright (c) Steve Scherf et al.
# Submitted via: dBpowerAMP V12.0
#
DISCID=f40e2712
DTITLE=Various Artist - Bluegrass Number 1’s: A Collection Of Chart Topping Songs
DYEAR=2004
DGENRE=Bluegrass
TTITLE0=Rhonda Vincent - Lonesome Wind Blues
TTITLE1=Hicks, Bobby - We're Steppin' Out Tonight
TTITLE2=Laurie Lewis - Who Will Watch the Home Place?
TTITLE3=James King - Thirty Years of Farming
TTITLE4=Unioin Station - New Fool
TTITLE5=J.D. Crowe - Waiting for You
TTITLE6=Lynn Morris Band - The Bramble and the Rose
TTITLE7=Blue Highway - Riding the Danville Pike
TTITLE8=Rhonda Vincent - Is the Grass Any Bluer
TTITLE9=Dan Tyminski - Carry Me Across the Mountain
TTITLE10=James King - Bed by the Window
TTITLE11=The Johnson Mountain Boys - Duncan and Brady (He's Been on the Job Too Long)
TTITLE12=Lynn Morris - Mama's Hand
TTITLE13=The Rice Brothers - Grapes on the Vine
TTITLE14=Laurie Lewis - Tall Pines
TTITLE15=The Del McCoury Band - The Cold Hard Facts
TTITLE16=Alison Krauss - So Long, So Wrong
TTITLE17=Longview - I've Never Been So Lonesome
EXTD=
EXTT0=
EXTT1=
EXTT2=
EXTT3=
EXTT4=
EXTT5=
EXTT6=
EXTT7=
EXTT8=
EXTT9=
EXTT10=
EXTT11=
EXTT12=
EXTT13=
EXTT14=
EXTT15=
EXTT16=
EXTT17=
PLAYORDER=
